<?xml version="1.0" encoding="UTF-8"?>
<!DOCTYPE svg PUBLIC "-//W3C//DTD SVG 1.1//EN" "http://www.w3.org/Graphics/SVG/1.1/DTD/svg11.dtd">
<!-- Creator: CorelDRAW 2020 (64-Bit) -->
<svg xmlns="http://www.w3.org/2000/svg" xml:space="preserve" width="238.125mm" height="105.833mm" version="1.1" style="shape-rendering:geometricPrecision; text-rendering:geometricPrecision; image-rendering:optimizeQuality; fill-rule:evenodd; clip-rule:evenodd"
viewBox="0 0 23812.48 10583.32"
 xmlns:xlink="http://www.w3.org/1999/xlink"
 xmlns:xodm="http://www.corel.com/coreldraw/odm/2003">
 <defs>
  <style type="text/css">
   <![CDATA[
    .fil1 {fill:#1F1B20;fill-rule:nonzero}
    .fil2 {fill:black;fill-rule:nonzero}
    .fil0 {fill:red;fill-rule:nonzero}
   ]]>
  </style>
 </defs>
 <g id="Layer_x0020_1">
  <metadata id="CorelCorpID_0Corel-Layer"/>
  <path class="fil0" d="M6819.8 7961.67l0 -5.42 0 -3610.33 506.14 0 0 1557.13 1985.4 0 0 -1557.13 506.13 0 10.19 3302.13c24.97,263.54 -121.67,-348.62 -516.32,-463.42l0 -834.03 -1985.4 0 0 1786.63 -240.66 0c-197.27,0 -265.48,73 -265.48,-175.56z"/>
  <path class="fil1" d="M12243.83 7816.41c-180.01,151.29 -352.68,257.93 -518,320.83 -166.24,61.97 -344.43,92.96 -534.55,92.96 -314.1,0 -554.75,-75.65 -723.74,-227.86 -168.07,-152.21 -252.58,-347.26 -252.58,-583.32 0,-139.46 31.23,-266.15 95.52,-380.99 63.38,-114.84 146.96,-206.9 249.82,-276.17 103.79,-69.27 219.51,-122.13 349.01,-157.68 94.61,-24.61 237.88,-49.22 429.85,-72.01 391.25,-46.48 679.65,-101.16 864.27,-165.88 1.83,-65.62 2.75,-107.55 2.75,-124.87 0,-195.96 -45.92,-334.5 -137.77,-413.79 -123.07,-109.38 -307.68,-163.16 -551.08,-163.16 -227.77,0 -395.85,39.2 -505.15,118.49 -108.37,79.3 -188.28,219.67 -240.63,421.09l-473.01 -64.71c43.17,-200.52 113.89,-363.67 212.17,-486.71 98.27,-123.96 241.56,-219.66 428,-286.2 186.44,-66.53 402.28,-100.25 648.42,-100.25 244.32,0 441.79,29.16 594.24,85.67 152.48,57.42 264.53,128.52 337.09,215.1 71.64,86.59 121.24,195.05 150.62,327.21 15.61,82.03 23.89,229.69 23.89,442.96l0 640.75c0,447.52 10.1,730.07 31.22,847.65 20.21,118.48 61.54,232.42 122.16,340.88l-506.07 0c-49.6,-99.35 -82.67,-216.01 -96.45,-349.99zm-40.4 -1073.69c-176.35,72 -439.95,132.16 -790.8,182.29 -199.3,28.26 -340.74,60.15 -422.49,95.7 -82.66,35.55 -146.95,87.5 -191.04,156.77 -45,68.36 -67.96,144 -67.96,227.86 0,128.52 49.59,235.16 146.95,320.83 97.36,84.76 240.64,127.6 428.92,127.6 186.45,0 352.68,-40.1 497.8,-121.22 145.12,-81.12 252.59,-192.31 320.55,-332.68 52.35,-108.46 78.07,-268.88 78.07,-480.33l0 -176.82zm1235.33 1423.68l0 -2835.51 435.33 0 0 429.29c111.15,-200.52 214.02,-333.59 308.61,-397.4 93.68,-63.8 197.47,-96.6 310.44,-96.6 163.48,0 328.81,51.95 497.81,154.94l-167.16 446.61c-117.57,-70.18 -236.05,-104.82 -354.53,-104.82 -106.54,0 -201.14,31.9 -285.64,94.8 -84.5,63.79 -144.2,151.29 -180.02,263.4 -54.19,170.44 -80.82,357.29 -80.82,560.54l0 1484.75 -484.02 0zm1842.42 -3361.42l0 -553.25 484.94 0 0 553.25 -484.94 0zm0 3361.42l0 -2835.51 484.94 0 0 2835.51 -484.94 0zm1133.38 235.15l471.16 69.27c19.28,144.02 74.39,248.83 163.49,315.37 120.31,88.41 284.72,133.07 492.29,133.07 225.02,0 397.69,-44.66 519.84,-133.07 122.16,-89.33 203.9,-214.19 247.07,-373.69 25.72,-98.45 36.74,-303.52 34.9,-617.06 -211.24,247.01 -474.84,370.96 -790.79,370.96 -393.1,0 -697.11,-140.36 -912.03,-422 -214.92,-280.73 -323.3,-618.87 -323.3,-1011.7 0,-270.71 49.6,-520.44 147.88,-749.21 99.19,-228.78 242.47,-405.6 429.83,-530.47 187.37,-123.96 407.8,-186.84 660.37,-186.84 337.08,0 615.37,135.8 833.96,406.5l0 -341.79 447.3 0 0 2450.88c0,441.14 -45.93,754.68 -135.94,938.79 -90.93,184.12 -234.21,329.95 -430.76,436.59 -196.55,106.64 -438.11,160.41 -725.58,160.41 -340.74,0 -616.28,-76.56 -825.69,-228.77 -210.32,-152.22 -311.36,-380.99 -304,-687.24zm400.44 -1703.49c0,371.87 74.39,643.48 224.1,813.92 148.79,171.36 335.23,256.12 559.34,256.12 222.27,0 408.72,-84.76 559.35,-254.3 150.62,-170.43 225.94,-436.58 225.94,-800.24 0,-347.27 -77.16,-608.85 -232.38,-784.77 -155.22,-175.91 -342.58,-264.32 -561.17,-264.32 -214.92,0 -397.7,86.6 -549.24,260.68 -150.63,173.18 -225.94,431.11 -225.94,772.91zm2572.6 50.13c0,-525 146.95,-914.18 441.78,-1166.66 245.23,-209.63 544.64,-315.35 898.25,-315.35 393.1,0 714.55,127.59 963.46,383.71 249.82,255.21 373.81,607.94 373.81,1058.19 0,365.49 -55.11,652.6 -165.32,861.32 -110.21,209.64 -270.95,371.87 -481.27,487.63 -211.25,115.75 -440.86,173.17 -690.68,173.17 -399.53,0 -722.82,-126.69 -969.89,-381.9 -247.06,-254.29 -370.14,-620.69 -370.14,-1100.11zm497.8 0c0,363.66 79.91,635.28 239.72,815.75 159.81,181.37 360.96,271.61 602.51,271.61 240.63,0 440.86,-91.15 600.68,-272.53 158.88,-181.37 238.78,-458.46 238.78,-830.32 0,-350.91 -79.9,-617.06 -240.62,-797.53 -160.74,-180.46 -360.04,-270.7 -598.84,-270.7 -241.55,0 -442.7,90.24 -602.51,269.8 -159.81,179.55 -239.72,451.16 -239.72,813.92z"/>
  <path class="fil2" d="M8920.64 7539.61c113.3,-7.59 174.63,65.56 186.15,219.47 3.72,66.25 -33.12,127.89 -112.66,187.04 -79.53,57.01 -182.35,90.34 -306.34,99.97 -136.8,9.53 -273.14,-36.48 -406.88,-135.88 -135.9,-99.42 -207.52,-219.65 -217.01,-360.73 -9.52,-136.8 57.8,-266.55 201.94,-387.11 144.15,-120.55 319.89,-187.43 527.24,-202.78 245.82,-17.15 478.1,51.03 694.68,208.81 218.73,155.65 334.65,342.48 349.87,564.79 19.13,265.06 -89.62,494.87 -328.39,689.4 -236.63,194.54 -489.62,301.37 -761.09,320.44 -681.88,47.67 -1357.5,-141.75 -2029,-566.12 -671.5,-424.37 -1465.78,-1236.45 -2387.11,-2434.14l-686.97 650.07 195.79 3133.47c356.97,-24.76 772.33,-132.35 1248.17,-320.61l22.84 331.32c-462.6,137.1 -926.9,222.92 -1397.16,255.26 -211.62,15.32 -633.07,86.54 -1264.35,213.67l-24.9 -342.02 1109.62 -103.88 -1001.01 -7464.15 -915.1 90.57 -21.02 -294.99c669.16,-58.46 1148.15,-112.1 1436.95,-158.8 288.81,-48.84 689.25,-162.96 1199.23,-344.52l22.75 342 -753.85 222.23c-10.01,1187.7 29.83,2544.6 115.23,4072.78 915.48,-895.95 1591.05,-1714.88 2024.57,-2458.94 435.65,-741.9 760.56,-1525.32 972.56,-2346.02l-574.08 -323.15 127.96 -227.5c427.48,227.92 780.79,384.71 1064.23,466.14 283.42,83.56 590.43,156.65 921.02,221.38l-132.39 246.7 -665.55 -116.7c-710.13,1371.95 -1527.83,2580.62 -2453.12,3626.02l1024.31 1401.51c333.71,453.56 642.46,827.89 928.38,1122.97 285.91,295.08 593.7,530.53 919.08,704.17 325.4,173.65 664.45,247.01 1017.16,222.2 166.72,-11.41 308.46,-99.93 427.38,-267.7 116.77,-167.79 169.64,-357.47 154.33,-569.11 -13.35,-190.23 -71.85,-346.68 -173.38,-467.17 -103.66,-120.5 -231.38,-174.99 -385.29,-163.46 -254.37,17.08 -372.96,146.4 -355.76,387.94 7.77,91.93 39.07,179.78 93.9,265.69 56.95,85.93 116.42,127.03 178.4,123.27 124,-9.63 189.01,-120.17 188.67,-333.8z"/>
 </g>
</svg>
