<?xml version="1.0" encoding="UTF-8"?>
<!DOCTYPE svg PUBLIC "-//W3C//DTD SVG 1.1//EN" "http://www.w3.org/Graphics/SVG/1.1/DTD/svg11.dtd">
<!-- Creator: CorelDRAW 2020 (64-Bit) -->
<svg xmlns="http://www.w3.org/2000/svg" xml:space="preserve" width="91.4398mm" height="91.4398mm" version="1.1" style="shape-rendering:geometricPrecision; text-rendering:geometricPrecision; image-rendering:optimizeQuality; fill-rule:evenodd; clip-rule:evenodd"
viewBox="0 0 9143.98 9143.98"
 xmlns:xlink="http://www.w3.org/1999/xlink"
 xmlns:xodm="http://www.corel.com/coreldraw/odm/2003">
 <defs>
  <style type="text/css">
   <![CDATA[
    .str0 {stroke:#2B2A29;stroke-width:52.92;stroke-miterlimit:2.61313}
    .fil4 {fill:none}
    .fil0 {fill:yellow}
    .fil3 {fill:#2B2A29;fill-rule:nonzero}
    .fil2 {fill:#1F1B20;fill-rule:nonzero}
    .fil1 {fill:red;fill-rule:nonzero}
   ]]>
  </style>
 </defs>
 <g id="Layer_x0020_1">
  <metadata id="CorelCorpID_0Corel-Layer"/>
  <polygon class="fil0" points="1247.54,-0.05 1485.63,-0.05 1737.78,1484.51 1600.09,1550.61 2035.07,4113.64 8141.26,1293.7 8124.54,1269.5 9144.03,809.36 9144.03,1055.79 8161.68,1509.39 8196.18,1723.65 4731.21,3351.21 5275.83,6584.08 5293.42,6571 5627.76,8509.72 5670.77,8490.09 5788.09,9144.03 5576.93,9144.03 5475.26,8570.78 5420.51,8610.03 5088.13,6673.49 5066.62,6684.4 4925.85,5866.6 1549.24,7434.59 1562.92,7489.11 -0.05,8213.13 -0.05,7968.88 1521.87,7271.03 1512.09,7207.79 2270.7,6856.68 1380.8,1649.21 1512.09,1587.9 "/>
  <path class="fil1" d="M2302.91 5704.59l0 -2.3 0 -1534.69 215.15 0 0 661.91 843.96 0 0 -661.91 215.15 0 4.33 1403.68c10.61,112.02 -51.72,-148.2 -219.48,-196.99l0 -354.54 -843.96 0 0 759.47 -102.3 0c-83.86,0 -112.85,31.03 -112.85,-74.63z"/>
  <path class="fil2" d="M4608.57 5642.84c-76.52,64.32 -149.92,109.65 -220.2,136.38 -70.66,26.35 -146.41,39.52 -227.22,39.52 -133.52,0 -235.81,-32.16 -307.65,-96.86 -71.45,-64.7 -107.37,-147.61 -107.37,-247.96 0,-59.28 13.28,-113.13 40.61,-161.95 26.94,-48.82 62.46,-87.95 106.19,-117.4 44.12,-29.44 93.31,-51.91 148.36,-67.02 40.21,-10.47 101.12,-20.93 182.72,-30.61 166.32,-19.76 288.91,-43.01 367.38,-70.51 0.78,-27.9 1.18,-45.72 1.18,-53.09 0,-83.29 -19.53,-142.19 -58.57,-175.89 -52.32,-46.5 -130.79,-69.36 -234.25,-69.36 -96.83,0 -168.27,16.67 -214.73,50.37 -46.07,33.71 -80.04,93.38 -102.29,179l-201.07 -27.51c18.35,-85.23 48.42,-154.59 90.19,-206.89 41.78,-52.69 102.68,-93.37 181.93,-121.66 79.26,-28.28 171.01,-42.62 275.64,-42.62 103.85,0 187.79,12.4 252.6,36.42 64.81,24.41 112.45,54.63 143.29,91.44 30.45,36.81 51.53,82.91 64.03,139.09 6.63,34.87 10.15,97.64 10.15,188.29l0 272.38c0,190.23 4.29,310.34 13.27,360.32 8.59,50.36 26.16,98.79 51.93,144.9l-215.12 0c-21.09,-42.23 -35.14,-91.82 -41,-148.78zm-17.18 -456.4c-74.96,30.6 -187.01,56.18 -336.15,77.49 -84.72,12.01 -144.84,25.57 -179.59,40.68 -35.14,15.11 -62.47,37.19 -81.21,66.64 -19.13,29.06 -28.89,61.21 -28.89,96.86 0,54.63 21.08,99.96 62.47,136.38 41.38,36.03 102.29,54.24 182.32,54.24 79.26,0 149.92,-17.05 211.61,-51.53 61.69,-34.49 107.37,-81.75 136.26,-141.42 22.25,-46.1 33.18,-114.29 33.18,-204.18l0 -75.16zm525.12 605.18l0 -1205.33 185.06 0 0 182.49c47.24,-85.24 90.97,-141.81 131.18,-168.93 39.82,-27.12 83.94,-41.07 131.96,-41.07 69.5,0 139.77,22.09 211.61,65.87l-71.06 189.84c-49.97,-29.83 -100.34,-44.55 -150.7,-44.55 -45.29,0 -85.5,13.56 -121.42,40.29 -35.92,27.12 -61.3,64.32 -76.52,111.97 -23.04,72.45 -34.36,151.88 -34.36,238.28l0 631.14 -205.75 0zm783.18 -1428.88l0 -235.18 206.14 0 0 235.18 -206.14 0zm0 1428.88l0 -1205.33 206.14 0 0 1205.33 -206.14 0zm481.78 99.96l200.28 29.44c8.2,61.22 31.63,105.78 69.5,134.06 51.14,37.58 121.03,56.57 209.26,56.57 95.66,0 169.06,-18.99 220.98,-56.57 51.93,-37.97 86.67,-91.05 105.02,-158.85 10.94,-41.85 15.62,-129.02 14.84,-262.3 -89.79,105 -201.84,157.69 -336.15,157.69 -167.1,0 -296.33,-59.67 -387.69,-179.39 -91.36,-119.33 -137.43,-263.07 -137.43,-430.05 0,-115.07 21.09,-221.23 62.86,-318.48 42.17,-97.25 103.07,-172.41 182.72,-225.49 79.64,-52.69 173.35,-79.43 280.71,-79.43 143.29,0 261.58,57.73 354.5,172.8l0 -145.29 190.14 0 0 1041.83c0,187.52 -19.52,320.8 -57.78,399.06 -38.66,78.27 -99.56,140.26 -183.11,185.59 -83.55,45.33 -186.24,68.19 -308.43,68.19 -144.85,0 -261.97,-32.55 -350.99,-97.25 -89.41,-64.7 -132.35,-161.95 -129.23,-292.13zm170.22 -724.13c0,158.08 31.63,273.54 95.26,345.99 63.25,72.84 142.51,108.87 237.77,108.87 94.48,0 173.74,-36.03 237.77,-108.1 64.02,-72.45 96.04,-185.58 96.04,-340.17 0,-147.61 -32.79,-258.81 -98.78,-333.59 -65.98,-74.78 -145.62,-112.36 -238.54,-112.36 -91.36,0 -169.06,36.81 -233.47,110.81 -64.03,73.62 -96.05,183.26 -96.05,328.55zm1093.57 21.31c0,-223.17 62.47,-388.6 187.79,-495.92 104.24,-89.11 231.52,-134.06 381.83,-134.06 167.1,0 303.75,54.24 409.55,163.12 106.2,108.48 158.91,258.42 158.91,449.81 0,155.37 -23.43,277.41 -70.28,366.14 -46.85,89.11 -115.18,158.07 -204.58,207.28 -89.8,49.2 -187.4,73.61 -293.6,73.61 -169.83,0 -307.26,-53.85 -412.28,-162.34 -105.02,-108.09 -157.34,-263.84 -157.34,-467.64zm211.61 0c0,154.59 33.96,270.05 101.9,346.76 67.93,77.1 153.43,115.46 256.11,115.46 102.29,0 187.4,-38.75 255.34,-115.85 67.54,-77.1 101.51,-194.88 101.51,-352.95 0,-149.17 -33.97,-262.3 -102.29,-339.02 -68.33,-76.71 -153.05,-115.07 -254.56,-115.07 -102.68,0 -188.18,38.36 -256.11,114.69 -67.94,76.32 -101.9,191.78 -101.9,345.98z"/>
  <path class="fil2" d="M3191.1 5498.16c47.08,-3.72 73.19,27.01 78.34,92.19 2.21,28.06 -13.89,54.84 -47.47,79.35 -33.52,25.42 -76.11,39.72 -129.52,43.94 -57.93,4.58 -115.85,-13.62 -173.81,-55.5 -57.06,-41.95 -88.43,-93.21 -93.15,-152.95 -4.58,-57.94 23.79,-113.92 84.41,-165.16 60.55,-52.15 134.74,-81.7 223.45,-88.71 104.1,-8.22 202.92,20.41 295.54,85.95 93.6,66.4 143.63,146.25 151,239.49 9.01,114.05 -36.96,212.42 -136.94,295.92 -99.97,83.5 -207.41,130.24 -322.38,139.32 -289.67,22.89 -578.16,-54.51 -865.54,-233.11 -287.36,-178.6 -628.64,-520.54 -1023.87,-1026.74l-290.41 278.9 94.28 1331.55c152.08,-12.01 328.74,-58.76 529.98,-140.24l11.16 141.21c-196.56,60.16 -393.99,97.62 -594.05,113.43 -90.51,7.15 -269.23,39.49 -537.11,96.18l-11.59 -146.65 471.68 -48.19 -453.28 -3177.79 -390.21 41.76 -9.44 -119.49c283.82,-27.89 487.69,-53.1 610.7,-75.57 122.11,-22.41 291.87,-75.9 507.45,-160.34l11.58 146.65 -319.94 100.89c1.81,507.21 23.91,1086.61 66.35,1739.09 385.95,-383.92 670.62,-735.23 853.19,-1052.99 182.65,-316.84 317.49,-650.85 405.49,-1001.21l-245.64 -134.53 53.29 -98.04c182.46,95.81 333.37,161.31 454.41,194.56 121.12,34.15 251.97,64.8 392.5,91.05l-55.43 105.48 -284.25 -46.77c-297.13,585.5 -640.67,1102.69 -1030.65,1550.69l441.93 589.95c142.61,190.95 276.16,348 398.93,472.2 122.69,123.3 253.41,221.37 392.15,294.21 139.58,71.86 284.08,102.34 434.35,90.47 70.61,-5.58 131.33,-44.08 180.42,-114.46 49.93,-71.34 71.01,-150.44 63.93,-240.05 -6.37,-80.57 -31.58,-145.99 -75.62,-196.24 -44.06,-50.27 -98.64,-72.37 -164.71,-67.15 -107.73,8.51 -157.97,64.4 -149.89,166.69 3.08,38.92 16.95,76.09 40.77,112.46 24.73,36.31 50.68,53.39 76.93,51.31 54.31,-4.29 80.61,-51.91 80.69,-143.01z"/>
  <path class="fil3" d="M8811.29 4206.97l0 -198.39 84.37 0c21.19,0 36.62,1.8 46.22,5.36 9.66,3.55 17.32,9.88 23.09,18.98 5.78,9.14 8.69,19.53 8.69,31.26 0,14.92 -4.35,27.2 -13.07,36.9 -8.73,9.7 -21.75,15.79 -39.12,18.33 8.64,5.04 15.75,10.58 21.34,16.63 5.63,6.05 13.2,16.81 22.72,32.23l24.2 38.7 -47.89 0 -28.73 -43.32c-10.29,-15.37 -17.36,-25.07 -21.19,-29.09 -3.79,-3.97 -7.81,-6.74 -12.06,-8.22 -4.29,-1.48 -11.03,-2.22 -20.27,-2.22l-8.13 0 0 82.85 -40.17 0zm40.17 -114.43l29.65 0c19.21,0 31.17,-0.84 35.98,-2.45 4.75,-1.62 8.54,-4.43 11.22,-8.41 2.72,-3.97 4.06,-8.96 4.06,-14.91 0,-6.7 -1.8,-12.06 -5.36,-16.21 -3.55,-4.11 -8.59,-6.7 -15.05,-7.76 -3.28,-0.46 -13.02,-0.69 -29.23,-0.69l-31.27 0 0 50.43z"/>
  <ellipse class="fil4 str0" cx="8890.12" cy="4112.04" rx="254.8" ry="245.76"/>
 </g>
</svg>
